<svg width="24" height="24" viewBox="0 0 24 24" fill="none" xmlns="http://www.w3.org/2000/svg">
<path d="M3.18459 11.9999L10.7173 19.5326C10.916 19.7314 11.0128 19.9653 11.0077 20.2346C11.0025 20.5038 10.9006 20.7377 10.7019 20.9365C10.5032 21.1352 10.2692 21.2345 9.99999 21.2345C9.73076 21.2345 9.49679 21.1352 9.29809 20.9365L1.62694 13.2807C1.44614 13.0999 1.31215 12.8974 1.22499 12.673C1.13782 12.4486 1.09424 12.2243 1.09424 11.9999C1.09424 11.7756 1.13782 11.5512 1.22499 11.3269C1.31217 11.1025 1.44616 10.9 1.62694 10.7192L9.29809 3.04804C9.49679 2.84932 9.73332 2.75252 10.0077 2.75764C10.282 2.76277 10.5186 2.8647 10.7173 3.06341C10.916 3.26213 11.0154 3.4961 11.0154 3.76531C11.0154 4.03455 10.916 4.26852 10.7173 4.46724L3.18459 11.9999Z" fill="#1C1C1E"/>
</svg>
