<svg width="28" height="28" viewBox="0 0 28 28" fill="none" xmlns="http://www.w3.org/2000/svg">
<rect width="28" height="28" rx="14" fill="#1C1C1E" fill-opacity="0.12"/>
<path d="M13.9904 22.7095C13.7763 22.7095 13.5612 22.671 13.3452 22.5941C13.1291 22.5171 12.9391 22.3966 12.775 22.2325L11.3385 20.9268C9.56539 19.3101 7.98238 17.722 6.58943 16.1624C5.19648 14.6027 4.5 12.9319 4.5 11.1499C4.5 9.73066 4.97852 8.54253 5.93558 7.58548C6.89263 6.62843 8.08076 6.1499 9.49998 6.1499C10.3064 6.1499 11.1029 6.3358 11.8894 6.7076C12.6759 7.0794 13.3795 7.68325 14 8.51915C14.6205 7.68325 15.324 7.0794 16.1105 6.7076C16.8971 6.3358 17.6936 6.1499 18.5 6.1499C19.9192 6.1499 21.1073 6.62843 22.0644 7.58548C23.0214 8.54253 23.5 9.73066 23.5 11.1499C23.5 12.9511 22.7916 14.6406 21.375 16.2181C19.9583 17.7957 18.3788 19.3704 16.6365 20.9422L15.2154 22.2325C15.0513 22.3966 14.8596 22.5171 14.6404 22.5941C14.4211 22.671 14.2045 22.7095 13.9904 22.7095ZM13.2808 10.0384C12.7397 9.21399 12.1702 8.60982 11.5721 8.22585C10.974 7.84187 10.2833 7.64988 9.49998 7.64988C8.49998 7.64988 7.66664 7.98321 6.99998 8.64988C6.33331 9.31654 5.99998 10.1499 5.99998 11.1499C5.99998 11.9524 6.25863 12.7915 6.77593 13.6672C7.29323 14.5428 7.94257 15.4133 8.72398 16.2787C9.50539 17.1441 10.3519 17.9896 11.2634 18.8152C12.1749 19.6409 13.0198 20.4082 13.798 21.1172C13.8557 21.1685 13.923 21.1941 14 21.1941C14.0769 21.1941 14.1442 21.1685 14.2019 21.1172C14.9801 20.4082 15.825 19.6409 16.7366 18.8152C17.6481 17.9896 18.4946 17.1441 19.276 16.2787C20.0574 15.4133 20.7067 14.5428 21.224 13.6672C21.7413 12.7915 22 11.9524 22 11.1499C22 10.1499 21.6666 9.31654 21 8.64988C20.3333 7.98321 19.5 7.64988 18.5 7.64988C17.7166 7.64988 17.0259 7.84187 16.4279 8.22585C15.8298 8.60982 15.2602 9.21399 14.7192 10.0384C14.6346 10.1666 14.5282 10.2627 14.4 10.3268C14.2718 10.3909 14.1384 10.423 14 10.423C13.8615 10.423 13.7282 10.3909 13.6 10.3268C13.4718 10.2627 13.3654 10.1666 13.2808 10.0384Z" fill="white"/>
</svg>
