<svg width="28" height="28" viewBox="0 0 28 28" fill="none" xmlns="http://www.w3.org/2000/svg">
<rect width="28" height="28" rx="14" fill="#1C1C1E" fill-opacity="0.12"/>
<path d="M13.9904 22.7095C13.7763 22.7095 13.5612 22.671 13.3452 22.5941C13.1291 22.5171 12.9391 22.3966 12.775 22.2325L11.3385 20.9268C9.56539 19.3101 7.98238 17.722 6.58943 16.1624C5.19648 14.6027 4.5 12.9319 4.5 11.1499C4.5 9.73066 4.97852 8.54253 5.93558 7.58548C6.89263 6.62843 8.08076 6.1499 9.49998 6.1499C10.3064 6.1499 11.1029 6.3358 11.8894 6.7076C12.6759 7.0794 13.3795 7.68325 14 8.51915C14.6205 7.68325 15.324 7.0794 16.1105 6.7076C16.8971 6.3358 17.6936 6.1499 18.5 6.1499C19.9192 6.1499 21.1073 6.62843 22.0644 7.58548C23.0214 8.54253 23.5 9.73066 23.5 11.1499C23.5 12.9511 22.7916 14.6406 21.375 16.2181C19.9583 17.7957 18.3788 19.3704 16.6365 20.9422L15.2154 22.2325C15.0513 22.3966 14.8596 22.5171 14.6404 22.5941C14.4211 22.671 14.2045 22.7095 13.9904 22.7095Z" fill="white"/>
</svg>
