<svg width="18" height="18" viewBox="0 0 18 18" fill="none" xmlns="http://www.w3.org/2000/svg">
<path d="M8.27163 13.125C8.11226 13.125 7.97867 13.071 7.87085 12.9632C7.76305 12.8553 7.70915 12.7217 7.70915 12.5622C7.70915 12.4028 7.76305 12.2692 7.87085 12.1615C7.97867 12.0538 8.11226 12 8.27163 12H9.72114C9.88052 12 10.0141 12.0539 10.1219 12.1618C10.2297 12.2696 10.2836 12.4033 10.2836 12.5627C10.2836 12.7222 10.2297 12.8557 10.1219 12.9634C10.0141 13.0711 9.88052 13.125 9.72114 13.125H8.27163ZM5.36538 9.56246C5.20602 9.56246 5.07243 9.50854 4.96462 9.40069C4.85681 9.29283 4.8029 9.15918 4.8029 8.99974C4.8029 8.84029 4.85681 8.70672 4.96462 8.59903C5.07243 8.49134 5.20602 8.4375 5.36538 8.4375H12.6274C12.7868 8.4375 12.9204 8.49143 13.0282 8.59928C13.136 8.70714 13.1899 8.84079 13.1899 9.00023C13.1899 9.15968 13.136 9.29324 13.0282 9.40093C12.9204 9.50862 12.7868 9.56246 12.6274 9.56246H5.36538ZM3.18752 5.99998C3.02814 5.99998 2.89455 5.94605 2.78673 5.83819C2.67892 5.73034 2.62502 5.59669 2.62502 5.43724C2.62502 5.2778 2.67892 5.14424 2.78673 5.03655C2.89455 4.92885 3.02814 4.875 3.18752 4.875H14.8125C14.9719 4.875 15.1054 4.92893 15.2133 5.03679C15.3211 5.14466 15.375 5.27831 15.375 5.43774C15.375 5.59719 15.3211 5.73076 15.2133 5.83845C15.1054 5.94614 14.9719 5.99998 14.8125 5.99998H3.18752Z" fill="#1C1C1E"/>
</svg>
