<svg width="29" height="28" viewBox="0 0 29 28" fill="none" xmlns="http://www.w3.org/2000/svg">
<path d="M6.45098 20.1635C7.49469 19.3889 8.63167 18.7774 9.86192 18.3287C11.0922 17.88 12.4015 17.6557 13.79 17.6557C15.1785 17.6557 16.4878 17.88 17.7181 18.3287C18.9483 18.7774 20.0853 19.3889 21.129 20.1635C21.8925 19.3244 22.4974 18.3531 22.9437 17.2496C23.39 16.146 23.6132 14.9512 23.6132 13.665C23.6132 10.9432 22.6564 8.62552 20.743 6.71205C18.8295 4.79858 16.5118 3.84184 13.79 3.84184C11.0682 3.84184 8.7505 4.79858 6.83703 6.71205C4.92355 8.62552 3.96682 10.9432 3.96682 13.665C3.96682 14.9512 4.18997 16.146 4.63627 17.2496C5.08257 18.3531 5.68747 19.3244 6.45098 20.1635ZM13.79 14.5859C12.6692 14.5859 11.7238 14.201 10.954 13.4312C10.1843 12.6614 9.79936 11.7161 9.79936 10.5953C9.79936 9.47443 10.1843 8.52912 10.954 7.75933C11.7238 6.98954 12.6692 6.60464 13.79 6.60464C14.9108 6.60464 15.8562 6.98954 16.626 7.75933C17.3957 8.52912 17.7806 9.47443 17.7806 10.5953C17.7806 11.7161 17.3957 12.6614 16.626 13.4312C15.8562 14.201 14.9108 14.5859 13.79 14.5859ZM13.79 25.33C12.1701 25.33 10.6506 25.0254 9.23146 24.4162C7.8123 23.8069 6.57771 22.9773 5.52769 21.9273C4.47769 20.8773 3.64808 19.6427 3.03886 18.2236C2.42962 16.8044 2.125 15.2849 2.125 13.665C2.125 12.0451 2.42962 10.5256 3.03886 9.10648C3.64808 7.68732 4.47769 6.45273 5.52769 5.40271C6.57771 4.35272 7.8123 3.52311 9.23146 2.91389C10.6506 2.30464 12.1701 2.00002 13.79 2.00002C15.4099 2.00002 16.9294 2.30464 18.3485 2.91389C19.7677 3.52311 21.0023 4.35272 22.0523 5.40271C23.1023 6.45273 23.9319 7.68732 24.5411 9.10648C25.1504 10.5256 25.455 12.0451 25.455 13.665C25.455 15.2849 25.1504 16.8044 24.5411 18.2236C23.9319 19.6427 23.1023 20.8773 22.0523 21.9273C21.0023 22.9773 19.7677 23.8069 18.3485 24.4162C16.9294 25.0254 15.4099 25.33 13.79 25.33Z" fill="#ACACAC"/>
</svg>
