<svg width="29" height="28" viewBox="0 0 29 28" fill="none" xmlns="http://www.w3.org/2000/svg">
<path d="M6.125 22.1667V11.8462C6.125 11.5122 6.1997 11.1959 6.34909 10.8971C6.49848 10.5984 6.70498 10.3523 6.96859 10.159L13.6096 5.15582C13.9781 4.87461 14.3993 4.73401 14.8732 4.73401C15.347 4.73401 15.7694 4.87461 16.1403 5.15582L22.7814 10.159C23.045 10.3523 23.2515 10.5984 23.4009 10.8971C23.5502 11.1959 23.6249 11.5122 23.6249 11.8462V22.1667C23.6249 22.6438 23.4526 23.0547 23.1078 23.3995C22.763 23.7443 22.3521 23.9166 21.875 23.9166H18.1506C17.8518 23.9166 17.6014 23.8156 17.3993 23.6135C17.1972 23.4113 17.0961 23.1609 17.0961 22.8621V17.1634C17.0961 16.8647 16.9951 16.6142 16.7929 16.4121C16.5908 16.21 16.3404 16.109 16.0416 16.109H13.7083C13.4095 16.109 13.1591 16.21 12.957 16.4121C12.7549 16.6142 12.6538 16.8647 12.6538 17.1634V22.8621C12.6538 23.1609 12.5528 23.4113 12.3507 23.6135C12.1485 23.8156 11.8981 23.9166 11.5993 23.9166H7.87497C7.39784 23.9166 6.9869 23.7443 6.64215 23.3995C6.29738 23.0547 6.125 22.6438 6.125 22.1667Z" fill="#ACACAC"/>
</svg>
