<svg width="29" height="28" viewBox="0 0 29 28" fill="none" xmlns="http://www.w3.org/2000/svg">
<path d="M3.3595 21.56C3.08056 21.56 2.84674 21.4656 2.65804 21.2769C2.46935 21.0881 2.375 20.8541 2.375 20.5751C2.375 20.296 2.46935 20.0623 2.65804 19.8738C2.84674 19.6853 3.08056 19.5911 3.3595 19.5911H14.2269C14.5058 19.5911 14.7396 19.6854 14.9283 19.8742C15.117 20.063 15.2114 20.2969 15.2114 20.576C15.2114 20.855 15.117 21.0888 14.9283 21.2773C14.7396 21.4658 14.5058 21.56 14.2269 21.56H3.3595ZM3.3595 15.1355C3.08056 15.1355 2.84674 15.0411 2.65804 14.8524C2.46935 14.6636 2.375 14.4297 2.375 14.1506C2.375 13.8715 2.46935 13.6378 2.65804 13.4493C2.84674 13.2608 3.08056 13.1666 3.3595 13.1666H7.60043C7.87937 13.1666 8.11319 13.261 8.30189 13.4497C8.49056 13.6385 8.5849 13.8724 8.5849 14.1515C8.5849 14.4306 8.49056 14.6643 8.30189 14.8528C8.11319 15.0413 7.87937 15.1355 7.60043 15.1355H3.3595ZM3.3595 8.71103C3.08056 8.71103 2.84674 8.61665 2.65804 8.42788C2.46935 8.2391 2.375 8.00518 2.375 7.72613C2.375 7.44706 2.46935 7.21328 2.65804 7.02481C2.84674 6.83633 3.08056 6.74209 3.3595 6.74209H7.60043C7.87937 6.74209 8.11319 6.83648 8.30189 7.02527C8.49056 7.21403 8.5849 7.44795 8.5849 7.72702C8.5849 8.00607 8.49056 8.23983 8.30189 8.42831C8.11319 8.61679 7.87937 8.71103 7.60043 8.71103H3.3595ZM17.4201 17.6599C15.7754 17.6599 14.3734 17.0852 13.2142 15.9357C12.0549 14.7863 11.4753 13.39 11.4753 11.7466C11.4753 10.1033 12.0552 8.70689 13.2151 7.55745C14.3749 6.40804 15.7776 5.83333 17.4231 5.83333C19.0687 5.83333 20.4704 6.40804 21.6282 7.55745C22.786 8.70689 23.365 10.1012 23.365 11.7403C23.365 12.3495 23.2699 12.949 23.0797 13.5389C22.8895 14.1288 22.6085 14.6694 22.2366 15.1608L26.6239 19.5103C26.8141 19.6892 26.9092 19.917 26.9092 20.1935C26.9092 20.4701 26.8141 20.7034 26.6239 20.8936C26.445 21.0754 26.2172 21.1662 25.9407 21.1662C25.6641 21.1662 25.4308 21.0754 25.2406 20.8936L20.8532 16.5441C20.3534 16.9076 19.8086 17.1845 19.2187 17.3746C18.6289 17.5648 18.0293 17.6599 17.4201 17.6599ZM17.4201 15.6909C18.5245 15.6909 19.4633 15.3081 20.2364 14.5424C21.0095 13.7766 21.396 12.8447 21.396 11.7466C21.396 10.6485 21.0095 9.71661 20.2364 8.95088C19.4633 8.18516 18.5245 7.8023 17.4201 7.8023C16.3157 7.8023 15.377 8.18516 14.6039 8.95088C13.8308 9.71661 13.4443 10.6485 13.4443 11.7466C13.4443 12.8447 13.8308 13.7766 14.6039 14.5424C15.377 15.3081 16.3157 15.6909 17.4201 15.6909Z" fill="#1C1C1E" fill-opacity="0.4"/>
</svg>
