<svg width="29" height="28" viewBox="0 0 29 28" fill="none" xmlns="http://www.w3.org/2000/svg">
<path fill-rule="evenodd" clip-rule="evenodd" d="M2.375 4.375C2.375 3.96079 2.71079 3.625 3.125 3.625H7.03751C7.63649 3.625 8.15128 4.0499 8.26484 4.63802L9.00498 8.47115H24.6227C25.4577 8.47115 26.058 9.27429 25.8215 10.0752L23.4135 18.229C23.2566 18.7603 22.7687 19.125 22.2147 19.125H10.5661C9.96717 19.125 9.45237 18.7001 9.33882 18.112L7.64955 9.36334L6.83117 5.125H3.125C2.71079 5.125 2.375 4.78921 2.375 4.375ZM9.29461 9.97115L10.7725 17.625H22.0279L24.2882 9.97115H9.29461ZM13.625 23.0417C13.625 24.3303 12.5803 25.375 11.2917 25.375C10.003 25.375 8.95833 24.3303 8.95833 23.0417C8.95833 21.753 10.003 20.7083 11.2917 20.7083C12.5803 20.7083 13.625 21.753 13.625 23.0417ZM21.7917 25.375C23.0803 25.375 24.125 24.3303 24.125 23.0417C24.125 21.753 23.0803 20.7083 21.7917 20.7083C20.503 20.7083 19.4583 21.753 19.4583 23.0417C19.4583 24.3303 20.503 25.375 21.7917 25.375Z" fill="#1C1C1E" fill-opacity="0.4"/>
</svg>
