<svg width="24" height="24" viewBox="0 0 24 24" fill="none" xmlns="http://www.w3.org/2000/svg">
<rect width="24" height="24" rx="12" fill="#32AFC0"/>
<path d="M9.10897 11.2116C8.52649 11.2116 8.02938 11.0057 7.61763 10.5939C7.20588 10.1822 7 9.68508 7 9.1026C7 8.52014 7.20588 8.02302 7.61763 7.61127C8.02938 7.19952 8.52649 6.99365 9.10897 6.99365C9.69144 6.99365 10.1886 7.19952 10.6003 7.61127C11.012 8.02302 11.2179 8.52014 11.2179 9.1026C11.2179 9.68508 11.012 10.1822 10.6003 10.5939C10.1886 11.0057 9.69144 11.2116 9.10897 11.2116ZM9.10858 10.2116C9.41653 10.2116 9.67841 10.1038 9.89423 9.88825C10.11 9.67269 10.2179 9.41093 10.2179 9.10299C10.2179 8.79504 10.1102 8.53316 9.8946 8.31735C9.67904 8.10153 9.41729 7.99362 9.10935 7.99362C8.80139 7.99362 8.53951 8.1014 8.3237 8.31697C8.10789 8.53254 7.99998 8.79429 7.99998 9.10224C7.99998 9.41018 8.10777 9.67206 8.32333 9.88787C8.53889 10.1037 8.80064 10.2116 9.10858 10.2116ZM14.8974 17C14.3149 17 13.8178 16.7941 13.4061 16.3824C12.9943 15.9706 12.7884 15.4735 12.7884 14.8911C12.7884 14.3086 12.9943 13.8115 13.4061 13.3997C13.8178 12.988 14.3149 12.7821 14.8974 12.7821C15.4799 12.7821 15.977 12.988 16.3887 13.3997C16.8005 13.8115 17.0064 14.3086 17.0064 14.8911C17.0064 15.4735 16.8005 15.9706 16.3887 16.3824C15.977 16.7941 15.4799 17 14.8974 17ZM14.897 16C15.205 16 15.4669 15.8923 15.6827 15.6767C15.8985 15.4611 16.0064 15.1994 16.0064 14.8914C16.0064 14.5835 15.8986 14.3216 15.6831 14.1058C15.4675 13.89 15.2057 13.7821 14.8978 13.7821C14.5898 13.7821 14.328 13.8899 14.1121 14.1054C13.8963 14.321 13.7884 14.5827 13.7884 14.8907C13.7884 15.1986 13.8962 15.4605 14.1118 15.6763C14.3273 15.8921 14.5891 16 14.897 16ZM7.41538 16.5846C7.32308 16.4923 7.27693 16.3759 7.27693 16.2355C7.27693 16.095 7.32308 15.9794 7.41538 15.8885L15.9013 7.40262C15.9936 7.31032 16.1085 7.26524 16.2461 7.26737C16.3837 7.2695 16.4987 7.31672 16.591 7.40904C16.6833 7.50134 16.7294 7.61771 16.7294 7.75817C16.7294 7.89862 16.6833 8.01429 16.591 8.10517L8.10512 16.591C8.01281 16.6833 7.89785 16.7284 7.76025 16.7263C7.62265 16.7242 7.50769 16.6769 7.41538 16.5846Z" fill="white"/>
</svg>
