<svg width="48" height="48" viewBox="0 0 48 48" fill="none" xmlns="http://www.w3.org/2000/svg">
<rect width="48" height="48" rx="8" fill="#F3F5F9"/>
<path d="M25.7034 23.6276L20.2726 18.1968C20.088 18.0122 19.9935 17.7801 19.9893 17.5007C19.985 17.2212 20.0794 16.9849 20.2726 16.7917C20.4657 16.5985 20.6999 16.502 20.9751 16.502C21.2503 16.502 21.4845 16.5985 21.6777 16.7917L27.67 22.784C27.7948 22.9088 27.8828 23.0404 27.9341 23.1789C27.9854 23.3173 28.011 23.4669 28.011 23.6276C28.011 23.7883 27.9854 23.9378 27.9341 24.0763C27.8828 24.2148 27.7948 24.3464 27.67 24.4712L21.6777 30.4635C21.4931 30.6481 21.261 30.7425 20.9816 30.7468C20.7021 30.7511 20.4657 30.6566 20.2726 30.4635C20.0794 30.2703 19.9829 30.0361 19.9829 29.7609C19.9829 29.4857 20.0794 29.2515 20.2726 29.0584L25.7034 23.6276Z" fill="#1C1C1E" fill-opacity="0.4"/>
</svg>
