<svg width="48" height="48" viewBox="0 0 48 48" fill="none" xmlns="http://www.w3.org/2000/svg">
<rect width="48" height="48" rx="8" fill="#F3F5F9"/>
<path d="M25.7033 23.6276L20.2725 18.1968C20.0879 18.0122 19.9935 17.7801 19.9892 17.5007C19.9849 17.2212 20.0794 16.9849 20.2725 16.7917C20.4657 16.5985 20.6999 16.502 20.9751 16.502C21.2503 16.502 21.4845 16.5985 21.6776 16.7917L27.6699 22.784C27.7947 22.9088 27.8827 23.0404 27.934 23.1789C27.9853 23.3173 28.0109 23.4669 28.0109 23.6276C28.0109 23.7883 27.9853 23.9378 27.934 24.0763C27.8827 24.2148 27.7947 24.3464 27.6699 24.4712L21.6776 30.4635C21.493 30.6481 21.261 30.7425 20.9815 30.7468C20.702 30.7511 20.4657 30.6566 20.2725 30.4635C20.0794 30.2703 19.9828 30.0361 19.9828 29.7609C19.9828 29.4857 20.0794 29.2515 20.2725 29.0584L25.7033 23.6276Z" fill="#32AFC0"/>
</svg>
