<svg width="18" height="18" viewBox="0 0 18 18" fill="none" xmlns="http://www.w3.org/2000/svg">
<path d="M6.87229 9.48315C6.71285 9.48315 6.57929 9.42925 6.4716 9.32143C6.36391 9.21363 6.31007 9.08005 6.31007 8.92067V4.02257L4.57205 5.76058C4.47062 5.86442 4.34382 5.91634 4.19165 5.91634C4.03949 5.91634 3.90524 5.86254 3.7889 5.75494C3.67255 5.63755 3.61438 5.50338 3.61438 5.35241C3.61438 5.20145 3.67255 5.0678 3.7889 4.95146L6.39082 2.34955C6.46101 2.27936 6.53537 2.22984 6.61389 2.20099C6.69242 2.17214 6.77655 2.15771 6.8663 2.15771C6.95604 2.15771 7.04129 2.17225 7.12205 2.20131C7.20283 2.23038 7.27783 2.2798 7.34705 2.34955L9.96772 4.97021C10.0793 5.08175 10.1343 5.21108 10.1329 5.35819C10.1314 5.5053 10.0725 5.63755 9.95619 5.75494C9.83985 5.86254 9.70813 5.91827 9.56102 5.92212C9.4139 5.92597 9.28217 5.86971 9.16582 5.75337L7.43503 4.02257V8.92789C7.43503 9.08522 7.3811 9.21709 7.27325 9.32351C7.16539 9.42994 7.03174 9.48315 6.87229 9.48315ZM11.1336 15.8351C11.0438 15.8351 10.9586 15.8205 10.8778 15.7915C10.7971 15.7624 10.7221 15.713 10.6528 15.6432L8.03216 13.0226C7.92062 12.911 7.86557 12.7817 7.86701 12.6346C7.86846 12.4875 7.92735 12.3553 8.04369 12.2379C8.16003 12.1303 8.29175 12.0745 8.43887 12.0707C8.58598 12.0668 8.71771 12.1231 8.83406 12.2394L10.5649 13.9702V9.06492C10.5649 8.90759 10.6188 8.77571 10.7266 8.66927C10.8345 8.56285 10.9681 8.50963 11.1276 8.50963C11.287 8.50963 11.4206 8.56354 11.5283 8.67135C11.636 8.77916 11.6898 8.91275 11.6898 9.07212V13.9702L13.4278 12.2322C13.5293 12.1284 13.6561 12.0764 13.8082 12.0764C13.9604 12.0764 14.0946 12.1303 14.211 12.2379C14.3273 12.3553 14.3855 12.4894 14.3855 12.6404C14.3855 12.7913 14.3273 12.925 14.211 13.0413L11.6091 15.6432C11.5389 15.7134 11.4645 15.763 11.386 15.7918C11.3075 15.8206 11.2233 15.8351 11.1336 15.8351Z" fill="#1C1C1E"/>
</svg>
